<svg xmlns="http://www.w3.org/2000/svg" viewBox="0 0 128.827388 120.755437">
  <style>
    path { fill: #111; }
    @media (prefers-color-scheme: dark) {
      path { fill: #fff; }
    }
  </style>
  <g transform="translate(-6.175661,130.852712) scale(0.1,-0.1)">
    <path d="M428 1294 c-133 -32 -279 -135 -339 -238 -34 -61 -35 -66 -9 -66 46 0 98 39 144 109 58 86 106 114 203 115 53 1 67 -2 79 -18 25 -35 13 -174 -34 -376 l-17 -73 -56 -12 c-59 -11 -133 -58 -126 -78 2 -7 32 -13 75 -15 56 -2 72 -6 72 -18 0 -8 -37 -125 -81 -260 -45 -134 -79 -247 -76 -250 10 -10 50 3 88 29 44 29 54 52 135 294 l67 202 216 3 c119 2 217 3 218 2 2 0 -11 -61 -27 -135 -16 -74 -35 -177 -42 -230 -13 -108 -5 -147 37 -169 34 -18 157 -7 229 20 105 40 214 170 144 170 -31 0 -82 -32 -109 -69 -40 -54 -138 -52 -159 3 -33 87 107 646 259 1039 9 23 8 29 -5 34 -22 8 -100 -31 -119 -60 -19 -29 -90 -226 -140 -389 l-37 -118 -220 0 c-204 0 -219 1 -214 18 23 73 59 248 72 348 18 135 12 167 -36 191 -32 16 -119 15 -192 -3z"/>
  </g>
</svg>
